<svg xmlns="http://www.w3.org/2000/svg" viewBox="0 0 256 256" width="256" height="256">
  <defs>
    <linearGradient id="g" x1="0" y1="0" x2="1" y2="1">
      <stop offset="0" stop-color="#2563EB"/>
      <stop offset="1" stop-color="#1E3A8A"/>
    </linearGradient>
  </defs>
  <!-- App tile -->
  <rect x="16" y="16" width="224" height="224" rx="46" fill="url(#g)"/>
  <!-- Back "layer" page (translucent) -->
  <rect x="42" y="32" width="156" height="168" rx="14" fill="#FFFFFF" opacity="0.18"/>
  <!-- Front page -->
  <rect x="50" y="44" width="156" height="168" rx="14" fill="#FFFFFF"/>
  <!-- QR block -->
  <rect x="70" y="64" width="56" height="56" rx="6" fill="#2563EB"/>
  <rect x="76" y="70" width="44" height="44" rx="4" fill="#FFFFFF"/>
  <g fill="#2563EB">
    <rect x="78" y="72" width="9" height="9"/>
    <rect x="87" y="72" width="9" height="9"/>
    <rect x="96" y="72" width="9" height="9"/>
    <rect x="105" y="72" width="9" height="9"/>
    <rect x="78" y="81" width="9" height="9"/>
    <rect x="105" y="81" width="9" height="9"/>
    <rect x="78" y="90" width="9" height="9"/>
    <rect x="87" y="90" width="9" height="9"/>
    <rect x="96" y="90" width="9" height="9"/>
    <rect x="105" y="90" width="9" height="9"/>
    <rect x="78" y="99" width="9" height="9"/>
    <rect x="96" y="99" width="9" height="9"/>
    <rect x="105" y="99" width="9" height="9"/>
  </g>
  <!-- Barcode block -->
  <g fill="#1E3A8A">
    <rect x="72" y="150" width="8" height="34"/>
    <rect x="84" y="150" width="4" height="34"/>
    <rect x="92" y="150" width="10" height="34"/>
    <rect x="106" y="150" width="4" height="34"/>
    <rect x="114" y="150" width="6" height="34"/>
    <rect x="124" y="150" width="12" height="34"/>
    <rect x="140" y="150" width="4" height="34"/>
    <rect x="148" y="150" width="8" height="34"/>
    <rect x="160" y="150" width="4" height="34"/>
    <rect x="168" y="150" width="10" height="34"/>
    <rect x="182" y="150" width="4" height="34"/>
  </g>
</svg>
